<svg width="51" height="48" viewBox="0 0 51 48" fill="none" xmlns="http://www.w3.org/2000/svg">
<path d="M11.9 11.2C9.08904 11.2 6.79999 13.3544 6.79999 16V32C6.79999 34.6456 9.08904 36.8 11.9 36.8H39.1C41.9109 36.8 44.2 34.6456 44.2 32V16C44.2 13.3544 41.9109 11.2 39.1 11.2H11.9ZM11.9 12.8H39.1C40.998 12.8 42.5 14.2136 42.5 16V32C42.5 33.7864 40.998 35.2 39.1 35.2H11.9C11.4525 35.2032 11.0089 35.1226 10.5949 34.9629C10.1808 34.8032 9.80466 34.5677 9.48826 34.2699C9.17186 33.9721 8.92155 33.6181 8.75188 33.2284C8.58222 32.8387 8.49659 32.4211 8.49999 32V16C8.49999 14.2136 10.0019 12.8 11.9 12.8Z" fill="#EA4334"/>
<path d="M12.7746 16C12.6589 15.9969 12.5437 16.0161 12.4361 16.0564C12.3286 16.0967 12.2309 16.1573 12.149 16.2344C11.9897 16.3844 11.9002 16.5879 11.9002 16.8C11.9002 17.0121 11.9897 17.2156 12.149 17.3656L22.349 26.9656C24.0822 28.5976 26.9178 28.5976 28.6509 26.9656L38.8509 17.3656C39.0103 17.2156 39.0998 17.0121 39.0998 16.8C39.0998 16.5879 39.0103 16.3844 38.8509 16.2344C38.6915 16.0844 38.4754 16.0002 38.25 16.0002C38.0246 16.0002 37.8084 16.0844 37.649 16.2344L27.449 25.8344C27.1939 26.0767 26.8904 26.269 26.5558 26.4003C26.2213 26.5316 25.8624 26.5992 25.5 26.5992C25.1376 26.5992 24.7787 26.5316 24.4442 26.4003C24.1096 26.269 23.8061 26.0767 23.5509 25.8344L13.3509 16.2344C13.1977 16.0899 12.9915 16.006 12.7746 16Z" fill="#EA4334"/>
</svg>
