<svg width="37" height="38" viewBox="0 0 37 38" fill="none" xmlns="http://www.w3.org/2000/svg">
<path fill-rule="evenodd" clip-rule="evenodd" d="M8.09376 15.9198V12.6667C8.09376 6.76412 12.7528 1.97916 18.5 1.97916C24.2472 1.97916 28.9063 6.76412 28.9063 12.6667V15.9198C30.6249 16.0517 31.744 16.3843 32.562 17.2246C33.9167 18.6159 33.9167 20.855 33.9167 25.3333C33.9167 29.8116 33.9167 32.0508 32.562 33.4421C31.2073 34.8333 29.0271 34.8333 24.6667 34.8333H12.3333C7.97285 34.8333 5.79261 34.8333 4.43798 33.4421C3.08334 32.0508 3.08334 29.8116 3.08334 25.3333C3.08334 20.855 3.08334 18.6159 4.43798 17.2246C5.25603 16.3843 6.37519 16.0517 8.09376 15.9198ZM10.4063 12.6667C10.4063 8.0758 14.03 4.35416 18.5 4.35416C22.9701 4.35416 26.5938 8.0758 26.5938 12.6667V15.839C26.0033 15.8333 25.3627 15.8333 24.6667 15.8333H12.3333C11.6373 15.8333 10.9967 15.8333 10.4063 15.839V12.6667ZM12.3333 26.9167C13.1848 26.9167 13.875 26.2078 13.875 25.3333C13.875 24.4589 13.1848 23.75 12.3333 23.75C11.4819 23.75 10.7917 24.4589 10.7917 25.3333C10.7917 26.2078 11.4819 26.9167 12.3333 26.9167ZM18.5 26.9167C19.3515 26.9167 20.0417 26.2078 20.0417 25.3333C20.0417 24.4589 19.3515 23.75 18.5 23.75C17.6485 23.75 16.9583 24.4589 16.9583 25.3333C16.9583 26.2078 17.6485 26.9167 18.5 26.9167ZM26.2083 25.3333C26.2083 26.2078 25.5181 26.9167 24.6667 26.9167C23.8152 26.9167 23.125 26.2078 23.125 25.3333C23.125 24.4589 23.8152 23.75 24.6667 23.75C25.5181 23.75 26.2083 24.4589 26.2083 25.3333Z" fill="#EA4334"/>
</svg>
