<svg width="45" height="43" viewBox="0 0 45 43" fill="none" xmlns="http://www.w3.org/2000/svg">
<path d="M21.2695 3.66174C17.2705 3.9137 13.5264 5.07268 10.3711 7.02951C7.56738 8.77639 5.01856 11.2623 3.31348 13.9078C0.29883 18.6194 -0.703123 24.3135 0.536135 29.7305C1.21289 32.6867 2.55762 35.4918 4.51758 38.0281C5.09766 38.784 5.07129 38.7924 5.26465 38.0029C5.74805 36.0797 7.34766 34.1145 9.62403 32.6531C10.6699 31.9897 12.6211 31.0826 13.9482 30.6459L15.0205 30.3016L15.4863 30.6711C16.9014 31.8049 18.3428 32.502 20.1357 32.9303C20.8477 33.0983 21.1729 33.1235 22.5 33.1235C23.7744 33.1235 24.1699 33.0899 24.8291 32.9387C26.4111 32.5776 27.7822 31.9561 29.083 31.0071L29.8213 30.4612L30.4453 30.6543C32.0098 31.133 33.7764 31.9813 35.1738 32.9219C37.3184 34.3664 38.9004 36.4912 39.2168 38.3389C39.3926 39.4055 39.3398 39.3887 40.0078 38.5992C45.5361 32.0569 46.5557 23.0285 42.6094 15.5035C40.8516 12.1442 38.0127 9.13752 34.6289 7.02951C32.3438 5.61018 29.5488 4.54358 26.7627 4.02288C25.3477 3.75413 22.5967 3.57776 21.2695 3.66174ZM24.6094 11.8334C28.4238 12.8832 31.1309 16.3938 31.3506 20.5762C31.5264 23.8852 30.0498 27.085 27.457 28.9914C25.8047 30.2008 23.5986 30.8139 21.665 30.5871C19.7051 30.352 18.1406 29.6213 16.6816 28.2608C14.6162 26.3123 13.4912 23.4737 13.6494 20.5762C13.8779 16.1922 16.8223 12.5893 20.874 11.7242C21.7705 11.5311 23.7217 11.5899 24.6094 11.8334Z" fill="#EA4334"/>
</svg>
